<svg version="1.1" xmlns="http://www.w3.org/2000/svg" viewBox="0 0 910 208" width="910" height="208">
  <!-- svg-source:excalidraw -->
  
  <defs>
    <style class="style-fonts">
      @font-face {
        font-family: "Virgil";
        src: url("https://unpkg.com/@excalidraw/excalidraw@undefined/dist/excalidraw-assets/Virgil.woff2");
      }
      @font-face {
        font-family: "Cascadia";
        src: url("https://unpkg.com/@excalidraw/excalidraw@undefined/dist/excalidraw-assets/Cascadia.woff2");
      }
      @font-face {
        font-family: "Assistant";
        src: url("https://unpkg.com/@excalidraw/excalidraw@undefined/dist/excalidraw-assets/Assistant-Regular.woff2");
      }
    </style>
    
  </defs>
  <rect x="0" y="0" width="910" height="208" fill="white"></rect><g stroke-linecap="round"><g transform="translate(138.0165949866756 95.83118213135687) rotate(0 209.4834050133244 -27.155256205430938)"><path d="M0 0 C126.28 -1.1, 253.56 -0.85, 418.97 0 M0 0 C149.33 2.13, 298.08 2.26, 418.97 0 M418.97 0 C420.73 -11.53, 419.31 -24.02, 418.97 -54.31 M418.97 0 C417.96 -14.01, 418.42 -27.3, 418.97 -54.31" stroke="#111827" stroke-width="2" fill="none"></path></g><g transform="translate(138.0165949866756 95.83118213135687) rotate(0 209.4834050133244 -27.155256205430938)"><path d="M427.73 -28.61 C424.42 -37.35, 423.24 -44.65, 418.97 -54.31 M427.73 -28.61 C424.71 -37.3, 420.72 -46.22, 418.97 -54.31" stroke="#111827" stroke-width="2" fill="none"></path></g><g transform="translate(138.0165949866756 95.83118213135687) rotate(0 209.4834050133244 -27.155256205430938)"><path d="M409.16 -28.99 C411.46 -37.67, 415.88 -44.85, 418.97 -54.31 M409.16 -28.99 C412.75 -37.4, 415.38 -46.18, 418.97 -54.31" stroke="#111827" stroke-width="2" fill="none"></path></g></g><mask></mask><g stroke-linecap="round"><g transform="translate(557 34) rotate(0 -17 0)"><path d="M0 0 C-7.24 -0.75, -14.87 -0.31, -34 0 M0 0 C-12.52 0, -24.87 0.1, -34 0 M-34 0 C-34 0, -34 0, -34 0 M-34 0 C-34 0, -34 0, -34 0" stroke="#111827" stroke-width="2" fill="none"></path></g><g transform="translate(557 34) rotate(0 -17 0)"><path d="M-34 0 C-34 0, -34 0, -34 0 M-34 0 C-34 0, -34 0, -34 0" stroke="#111827" stroke-width="2" fill="none"></path></g><g transform="translate(557 34) rotate(0 -17 0)"><path d="M-34 0 C-34 0, -34 0, -34 0 M-34 0 C-34 0, -34 0, -34 0" stroke="#111827" stroke-width="2" fill="none"></path></g></g><mask></mask><g stroke-linecap="round"><g transform="translate(523 34) rotate(0 17 0)"><path d="M0 0 C10.07 -0.46, 20.25 -0.52, 34 0 M0 0 C8.89 0.11, 17.21 0.01, 34 0 M34 0 C34 0, 34 0, 34 0 M34 0 C34 0, 34 0, 34 0" stroke="#111827" stroke-width="2" fill="none"></path></g><g transform="translate(523 34) rotate(0 17 0)"><path d="M34 0 C34 0, 34 0, 34 0 M34 0 C34 0, 34 0, 34 0" stroke="#111827" stroke-width="2" fill="none"></path></g><g transform="translate(523 34) rotate(0 17 0)"><path d="M34 0 C34 0, 34 0, 34 0 M34 0 C34 0, 34 0, 34 0" stroke="#111827" stroke-width="2" fill="none"></path></g></g><mask></mask><g stroke-linecap="round"><g transform="translate(585.7215615776098 56.77211877297016) rotate(0 -60.721561577609805 47.22788122702984)"><path d="M0 0 C-39.69 1.62, -78.63 2.33, -121.44 0 M0 0 C-25.91 -0.55, -51.36 -0.25, -121.44 0 M-121.44 0 C-119.05 29.5, -122.46 63.44, -121.44 94.46 M-121.44 0 C-121.41 20.69, -120.8 41.97, -121.44 94.46" stroke="#111827" stroke-width="2" fill="none"></path></g><g transform="translate(585.7215615776098 56.77211877297016) rotate(0 -60.721561577609805 47.22788122702984)"><path d="M-131.5 66.19 C-127.86 76.42, -123.53 86.43, -121.44 94.46 M-131.5 66.19 C-129.67 71.13, -127.62 77.35, -121.44 94.46" stroke="#111827" stroke-width="2" fill="none"></path></g><g transform="translate(585.7215615776098 56.77211877297016) rotate(0 -60.721561577609805 47.22788122702984)"><path d="M-110.98 66.34 C-114.09 76.63, -116.52 86.59, -121.44 94.46 M-110.98 66.34 C-113.44 71.32, -115.68 77.5, -121.44 94.46" stroke="#111827" stroke-width="2" fill="none"></path></g></g><mask></mask><g stroke-linecap="round"><g transform="translate(493 174) rotate(0 19.5 0)"><path d="M0 0 C9.57 0.26, 19.57 0.6, 39 0 M0 0 C13.28 -0.25, 27.53 0.06, 39 0 M39 0 C39 0, 39 0, 39 0 M39 0 C39 0, 39 0, 39 0" stroke="#111827" stroke-width="2" fill="none"></path></g><g transform="translate(493 174) rotate(0 19.5 0)"><path d="M39 0 C39 0, 39 0, 39 0 M39 0 C39 0, 39 0, 39 0" stroke="#111827" stroke-width="2" fill="none"></path></g><g transform="translate(493 174) rotate(0 19.5 0)"><path d="M39 0 C39 0, 39 0, 39 0 M39 0 C39 0, 39 0, 39 0" stroke="#111827" stroke-width="2" fill="none"></path></g></g><mask></mask><g stroke-linecap="round"><g transform="translate(138.0165949866756 112.16881786864313) rotate(0 196.9834050133244 25.534885835060567)"><path d="M0 0 C152.24 0.71, 306.43 0.03, 393.97 0 M0 0 C92 -1.41, 184.02 -1.82, 393.97 0 M393.97 0 C394.83 21.37, 393.16 40.35, 393.97 51.07 M393.97 0 C394.16 12.59, 394.44 23.25, 393.97 51.07" stroke="#111827" stroke-width="2" fill="none"></path></g><g transform="translate(138.0165949866756 112.16881786864313) rotate(0 196.9834050133244 25.534885835060567)"><path d="M385.51 26.97 C386.8 37.13, 391.56 45.34, 393.97 51.07 M385.51 26.97 C387.27 32.41, 389.16 37.32, 393.97 51.07" stroke="#111827" stroke-width="2" fill="none"></path></g><g transform="translate(138.0165949866756 112.16881786864313) rotate(0 196.9834050133244 25.534885835060567)"><path d="M402.98 27.18 C397.47 37.23, 395.43 45.36, 393.97 51.07 M402.98 27.18 C400.66 32.67, 398.46 37.53, 393.97 51.07" stroke="#111827" stroke-width="2" fill="none"></path></g></g><mask></mask><g stroke-linecap="round"><g transform="translate(674.8502763712031 150.7248925223099) rotate(0 30.14972362879689 -11.724892522309895)"><path d="M0 0 C16.09 -1.16, 28.79 -0.75, 60.3 0 M0 0 C19.76 -0.62, 38.77 -0.01, 60.3 0 M60.3 0 C61.95 -4.89, 59.71 -10.49, 60.3 -23.45 M60.3 0 C59.46 -9.47, 61.34 -17.13, 60.3 -23.45" stroke="#111827" stroke-width="2" fill="none"></path></g><g transform="translate(674.8502763712031 150.7248925223099) rotate(0 30.14972362879689 -11.724892522309895)"><path d="M64.85 -12.64 C64.24 -16.04, 61.62 -18.52, 60.3 -23.45 M64.85 -12.64 C63.64 -16.23, 61.88 -19.37, 60.3 -23.45" stroke="#111827" stroke-width="2" fill="none"></path></g><g transform="translate(674.8502763712031 150.7248925223099) rotate(0 30.14972362879689 -11.724892522309895)"><path d="M56.84 -12.25 C58.25 -15.75, 57.65 -18.33, 60.3 -23.45 M56.84 -12.25 C58.22 -16.02, 59.06 -19.28, 60.3 -23.45" stroke="#111827" stroke-width="2" fill="none"></path></g></g><mask></mask><g stroke-linecap="round" transform="translate(10 80) rotate(0 65 24)"><path d="M12 0 C48.43 2.96, 79.92 1.35, 118 0 C129.13 1.23, 132.88 2.34, 130 12 C131.03 19.83, 130.62 26.67, 130 36 C130.07 41.16, 127.48 51.19, 118 48 C93.89 49.64, 60.41 50.42, 12 48 C3.03 50.4, -2.68 40.86, 0 36 C2.68 28.91, -2.21 17.88, 0 12 C0.03 5.18, 4.34 -1.15, 12 0" stroke="none" stroke-width="0" fill="lightblue"></path><path d="M12 0 C47.89 -1.47, 84.55 2.12, 118 0 M12 0 C43.27 -0.26, 74.4 -1.71, 118 0 M118 0 C125.15 -1.56, 130.9 5.72, 130 12 M118 0 C124.87 -0.9, 131.88 5.82, 130 12 M130 12 C130.17 21.3, 129.42 29.98, 130 36 M130 12 C130.09 18.34, 129 23.99, 130 36 M130 36 C128.62 43.62, 124.98 47.48, 118 48 M130 36 C131.39 42.22, 125.45 46.95, 118 48 M118 48 C76.45 50.12, 34.88 47.2, 12 48 M118 48 C88.12 48.25, 56.9 48.43, 12 48 M12 48 C5.27 48.51, 0.89 45.14, 0 36 M12 48 C5.32 47.8, 1.37 45.42, 0 36 M0 36 C-0.58 29.46, -1.29 19.69, 0 12 M0 36 C0.96 30.16, -0.66 23.12, 0 12 M0 12 C1.04 5.25, 3.41 -0.23, 12 0 M0 12 C-0.68 3.34, 6.22 -0.97, 12 0" stroke="#111827" stroke-width="2" fill="none"></path></g><g stroke-linecap="round" transform="translate(555 10) rotate(0 60 24)"><path d="M12 0 C37.71 2.63, 68.36 1.8, 108 0 C117.19 0.42, 119.27 7.02, 120 12 C118.08 20.24, 118.76 26.74, 120 36 C118.5 40.48, 117.72 48.09, 108 48 C80.75 44.39, 60.74 49.01, 12 48 C3.07 47.17, 2.99 40.84, 0 36 C2.87 28.9, -2.48 20.8, 0 12 C3.18 3.53, 4.56 3.25, 12 0" stroke="none" stroke-width="0" fill="lightgreen"></path><path d="M12 0 C37.99 -2.53, 63.52 -1.43, 108 0 M12 0 C48.26 0.51, 83.46 -0.02, 108 0 M108 0 C115.65 -1.31, 120.69 3.57, 120 12 M108 0 C117.54 -0.18, 117.75 4.74, 120 12 M120 12 C118.91 17.52, 119.55 27.19, 120 36 M120 12 C119.58 19.86, 119.24 28.01, 120 36 M120 36 C120.21 43.95, 114.06 48.45, 108 48 M120 36 C118.02 44.18, 117.01 48.54, 108 48 M108 48 C76.84 46.79, 44.75 46.13, 12 48 M108 48 C87.05 47.5, 67.92 47.8, 12 48 M12 48 C4.38 47.82, 0.73 42.91, 0 36 M12 48 C3 49.57, 1.3 46.2, 0 36 M0 36 C0.73 31.54, -0.74 22.61, 0 12 M0 36 C0.35 26.11, 0.31 17.06, 0 12 M0 12 C1.99 5.09, 5.39 1.95, 12 0 M0 12 C-1.37 4.39, 5.4 -0.69, 12 0" stroke="#111827" stroke-width="2" fill="none"></path></g><g stroke-linecap="round" transform="translate(345 10) rotate(0 90 24)"><path d="M12 0 C68.82 0.05, 124.38 5.91, 168 0 C178.07 0.92, 178.68 3.15, 180 12 C181.05 20.94, 182.92 27.69, 180 36 C182.29 44.12, 173.16 45.12, 168 48 C118.87 45.66, 73.63 50.41, 12 48 C7.37 48.8, -3.4 41.18, 0 36 C2.78 26.11, -0.09 20.11, 0 12 C0.35 4.66, 6.4 -1.86, 12 0" stroke="none" stroke-width="0" fill="lightgray"></path><path d="M12 0 C67.91 -2.04, 124.07 -0.15, 168 0 M12 0 C50.48 0.19, 87.84 0.81, 168 0 M168 0 C176.26 -0.18, 180.77 3.12, 180 12 M168 0 C177.46 -0.2, 180.78 5.49, 180 12 M180 12 C179.9 18.45, 177.98 25, 180 36 M180 12 C179.73 19.55, 180.01 28.2, 180 36 M180 36 C178.76 43.28, 174.82 46.53, 168 48 M180 36 C178.24 44.72, 174.5 47.17, 168 48 M168 48 C121.85 46.48, 73.72 45.94, 12 48 M168 48 C125.34 48.19, 80.13 48.85, 12 48 M12 48 C4.9 48.33, 0.48 44.45, 0 36 M12 48 C4.98 48.85, 1.88 45.91, 0 36 M0 36 C-1.36 27.85, 0.69 15.97, 0 12 M0 36 C0.47 26.71, 0.36 17.97, 0 12 M0 12 C-0.51 5.76, 5.17 0.22, 12 0 M0 12 C-1.58 2.66, 4.8 -0.82, 12 0" stroke="#111827" stroke-width="2" fill="none"></path></g><g stroke-linecap="round" transform="translate(375 150) rotate(0 60 24)"><path d="M12 0 C38.5 -0.18, 59.06 -1.14, 108 0 C114.36 0, 116.52 0.48, 120 12 C121.33 22.63, 117.43 30.54, 120 36 C118.43 42.93, 114.24 45.45, 108 48 C70.05 50.1, 32.15 47.97, 12 48 C0.44 50.15, 0.86 42.21, 0 36 C-1.85 31.31, 2.17 21.17, 0 12 C-1.2 2.41, 1.56 -2.6, 12 0" stroke="none" stroke-width="0" fill="lightyellow"></path><path d="M12 0 C47.33 2, 81.11 1.59, 108 0 M12 0 C47.1 -0.23, 82.58 0.33, 108 0 M108 0 C117.23 -1.19, 119.3 3.41, 120 12 M108 0 C113.9 -0.73, 121.88 2.25, 120 12 M120 12 C118.58 16.34, 121.02 25.51, 120 36 M120 12 C120.04 17.52, 120.71 21.68, 120 36 M120 36 C119.62 42.19, 117.66 47.66, 108 48 M120 36 C121.65 45.05, 116.36 48.64, 108 48 M108 48 C85.85 48.6, 64.3 45.89, 12 48 M108 48 C85.88 48.32, 64.49 47.64, 12 48 M12 48 C3.25 46.43, 1.01 44.63, 0 36 M12 48 C3.59 49.13, -0.17 42.98, 0 36 M0 36 C-0.06 29.7, -0.79 23.05, 0 12 M0 36 C0.87 25.56, -0.72 16.51, 0 12 M0 12 C-1.04 3.39, 4.61 -0.83, 12 0 M0 12 C-0.34 1.84, 1.73 -0.93, 12 0" stroke="#111827" stroke-width="2" fill="none"></path></g><g stroke-linecap="round" transform="translate(530 150) rotate(0 85 24)"><path d="M12 0 C44.39 0.17, 84.25 -0.54, 158 0 C167.35 2.62, 168.74 3.24, 170 12 C170.37 18.45, 168.56 23.02, 170 36 C167.47 41.43, 166.69 51.05, 158 48 C113.83 49.16, 68.41 51.67, 12 48 C3.21 46.37, 3.54 46.45, 0 36 C-1.01 23.95, -2.98 21.22, 0 12 C-0.21 5.53, 5.56 2.6, 12 0" stroke="none" stroke-width="0" fill="salmon"></path><path d="M12 0 C56.19 -0.92, 101.98 1.87, 158 0 M12 0 C67.82 -0.88, 125.41 0.11, 158 0 M158 0 C166.1 0.11, 171.31 3.1, 170 12 M158 0 C165.09 0.75, 171.75 3.15, 170 12 M170 12 C170.76 19.1, 170.06 20.97, 170 36 M170 12 C169.77 21.97, 170.17 30.62, 170 36 M170 36 C170.75 43.54, 165.8 47.38, 158 48 M170 36 C168.7 42.39, 167.17 47.46, 158 48 M158 48 C112.25 48.25, 61.03 49.34, 12 48 M158 48 C125.75 48.98, 92.1 47.44, 12 48 M12 48 C4.43 47.69, 1.58 43.09, 0 36 M12 48 C5.55 48.54, 1.2 45.3, 0 36 M0 36 C-1.78 27.8, -1.54 19.26, 0 12 M0 36 C-0.34 27.24, -0.22 16.78, 0 12 M0 12 C0.97 3.83, 2.71 0.93, 12 0 M0 12 C0.7 2.59, 5.22 0.84, 12 0" stroke="#111827" stroke-width="2" fill="none"></path></g><g stroke-linecap="round" transform="translate(690 80) rotate(0 105 24)"><path d="M12 0 C89.08 -2.37, 157.02 -2.66, 198 0 C206.64 0.13, 213.04 4.01, 210 12 C208.61 18.43, 206.93 23.95, 210 36 C212.17 47.38, 205.09 45.84, 198 48 C155.8 46.09, 115.43 46.62, 12 48 C4.88 48.53, 2.14 44.69, 0 36 C2.19 29.95, -0.89 21.09, 0 12 C1.95 6.68, 3.38 -2.65, 12 0" stroke="none" stroke-width="0" fill="lightblue"></path><path d="M12 0 C84.4 0.59, 157.2 -0.08, 198 0 M12 0 C58.23 -0.31, 105.93 1.07, 198 0 M198 0 C204.25 0.23, 209.4 5.79, 210 12 M198 0 C205.19 -1.62, 211.9 4.92, 210 12 M210 12 C210.16 18.68, 211.34 25.17, 210 36 M210 12 C209 20.16, 210.58 27.56, 210 36 M210 36 C211.97 42.75, 205.63 48.25, 198 48 M210 36 C208.11 46.27, 205.75 47, 198 48 M198 48 C130.06 48.23, 62.21 47.02, 12 48 M198 48 C125.43 47.7, 51.59 47.13, 12 48 M12 48 C2.28 49.21, -1.53 45.73, 0 36 M12 48 C5.56 49.3, 0.59 45.93, 0 36 M0 36 C1.15 28.06, 0.66 23.84, 0 12 M0 36 C0.84 29.76, -0.58 24.51, 0 12 M0 12 C1.61 4.21, 4.79 -0.6, 12 0 M0 12 C1.85 3.76, 3.5 0.85, 12 0" stroke="#111827" stroke-width="2" fill="none"></path></g><g transform="translate(30 92) rotate(0 45 12)"><text x="45" y="0" font-family="Virgil, Segoe UI Emoji" font-size="16px" fill="#111827" text-anchor="middle" style="white-space: pre;" direction="ltr" dominant-baseline="text-before-edge">User Query</text></g><g transform="translate(574.5 22) rotate(0 40.5 12)"><text x="40.5" y="0" font-family="Virgil, Segoe UI Emoji" font-size="16px" fill="#111827" text-anchor="middle" style="white-space: pre;" direction="ltr" dominant-baseline="text-before-edge">Retriever</text></g><g transform="translate(367.5 22) rotate(0 67.5 12)"><text x="67.5" y="0" font-family="Virgil, Segoe UI Emoji" font-size="16px" fill="#111827" text-anchor="middle" style="white-space: pre;" direction="ltr" dominant-baseline="text-before-edge">Vector Database</text></g><g transform="translate(394.5 162) rotate(0 40.5 12)"><text x="40.5" y="0" font-family="Virgil, Segoe UI Emoji" font-size="16px" fill="#111827" text-anchor="middle" style="white-space: pre;" direction="ltr" dominant-baseline="text-before-edge">Reranking</text></g><g transform="translate(552 162) rotate(0 63 12)"><text x="63" y="0" font-family="Virgil, Segoe UI Emoji" font-size="16px" fill="#111827" text-anchor="middle" style="white-space: pre;" direction="ltr" dominant-baseline="text-before-edge">Language Model</text></g><g transform="translate(714 92) rotate(0 81 12)"><text x="81" y="0" font-family="Virgil, Segoe UI Emoji" font-size="16px" fill="#111827" text-anchor="middle" style="white-space: pre;" direction="ltr" dominant-baseline="text-before-edge">Generated Response</text></g><g transform="translate(321 97.83118213135687) rotate(0 26.5 10)"><text x="26.5" y="0" font-family="Virgil, Segoe UI Emoji" font-size="14px" fill="#111827" text-anchor="middle" style="white-space: pre;" direction="ltr" dominant-baseline="text-before-edge">Input</text></g><g transform="translate(509 36) rotate(0 31 10)"><text x="31" y="0" font-family="Virgil, Segoe UI Emoji" font-size="14px" fill="#111827" text-anchor="middle" style="white-space: pre;" direction="ltr" dominant-baseline="text-before-edge">Search</text></g><g transform="translate(477.5 36) rotate(0 62.5 10)"><text x="62.5" y="0" font-family="Virgil, Segoe UI Emoji" font-size="14px" fill="#111827" text-anchor="middle" style="white-space: pre;" direction="ltr" dominant-baseline="text-before-edge">Relevant Docs</text></g><g transform="translate(467 58.77211877297016) rotate(0 58 10)"><text x="58" y="0" font-family="Virgil, Segoe UI Emoji" font-size="14px" fill="#111827" text-anchor="middle" style="white-space: pre;" direction="ltr" dominant-baseline="text-before-edge">Initial Docs</text></g><g transform="translate(472.5 176) rotate(0 40 10)"><text x="40" y="0" font-family="Virgil, Segoe UI Emoji" font-size="14px" fill="#111827" text-anchor="middle" style="white-space: pre;" direction="ltr" dominant-baseline="text-before-edge">Top Docs</text></g><g transform="translate(299.5 114.16881786864315) rotate(0 35.5 10)"><text x="35.5" y="0" font-family="Virgil, Segoe UI Emoji" font-size="14px" fill="#111827" text-anchor="middle" style="white-space: pre;" direction="ltr" dominant-baseline="text-before-edge">Context</text></g><g transform="translate(674 152.7248925223099) rotate(0 31 9.999999999999996)"><text x="31" y="0" font-family="Virgil, Segoe UI Emoji" font-size="14px" fill="#111827" text-anchor="middle" style="white-space: pre;" direction="ltr" dominant-baseline="text-before-edge">Output</text></g></svg>