<svg version="1.1" xmlns="http://www.w3.org/2000/svg" viewBox="0 0 230 968" width="230" height="968">
  <!-- svg-source:excalidraw -->
  
  <defs>
    <style class="style-fonts">
      @font-face {
        font-family: "Virgil";
        src: url("https://unpkg.com/@excalidraw/excalidraw@undefined/dist/excalidraw-assets/Virgil.woff2");
      }
      @font-face {
        font-family: "Cascadia";
        src: url("https://unpkg.com/@excalidraw/excalidraw@undefined/dist/excalidraw-assets/Cascadia.woff2");
      }
      @font-face {
        font-family: "Assistant";
        src: url("https://unpkg.com/@excalidraw/excalidraw@undefined/dist/excalidraw-assets/Assistant-Regular.woff2");
      }
    </style>
    
  </defs>
  <rect x="0" y="0" width="230" height="968" fill="#f4f4f4"></rect><g stroke-linecap="round"><g transform="translate(115 56) rotate(0 0 68)"><path d="M0 0 C-0.75 55.4, 2 106.01, 0 136 M0 0 C0.07 47.74, -0.13 97.33, 0 136" stroke="#111827" stroke-width="2" fill="none"></path></g><g transform="translate(115 56) rotate(0 0 68)"><path d="M-10.29 107.82 C-7.8 120.58, -0.98 128.61, 0 136 M-10.29 107.82 C-6.06 117.33, -2.61 128.69, 0 136" stroke="#111827" stroke-width="2" fill="none"></path></g><g transform="translate(115 56) rotate(0 0 68)"><path d="M10.23 107.8 C4.61 120.67, 3.33 128.7, 0 136 M10.23 107.8 C7.19 117.31, 3.35 128.68, 0 136" stroke="#111827" stroke-width="2" fill="none"></path></g></g><mask></mask><g stroke-linecap="round"><g transform="translate(115 236) rotate(0 0 68)"><path d="M0 0 C0.2 36.25, -1.34 72.53, 0 136 M0 0 C1.51 47.14, 0.76 96.13, 0 136" stroke="#111827" stroke-width="2" fill="none"></path></g><g transform="translate(115 236) rotate(0 0 68)"><path d="M-9.8 107.65 C-7.38 115.39, -6.32 123.12, 0 136 M-9.8 107.65 C-5.41 117.15, -2.73 128.45, 0 136" stroke="#111827" stroke-width="2" fill="none"></path></g><g transform="translate(115 236) rotate(0 0 68)"><path d="M10.72 107.98 C7.7 115.54, 3.31 123.17, 0 136 M10.72 107.98 C7.92 117.25, 3.42 128.44, 0 136" stroke="#111827" stroke-width="2" fill="none"></path></g></g><mask></mask><g stroke-linecap="round"><g transform="translate(115 416) rotate(0 0 68)"><path d="M0 0 C-1.91 40.06, 1.13 78.05, 0 136 M0 0 C0.26 45.16, 0.59 88.53, 0 136" stroke="#111827" stroke-width="2" fill="none"></path></g><g transform="translate(115 416) rotate(0 0 68)"><path d="M-10.05 107.73 C-8.44 116.72, -2.49 123.56, 0 136 M-10.05 107.73 C-6.36 117.82, -2.77 126.17, 0 136" stroke="#111827" stroke-width="2" fill="none"></path></g><g transform="translate(115 416) rotate(0 0 68)"><path d="M10.47 107.89 C6.15 116.69, 6.16 123.49, 0 136 M10.47 107.89 C7.49 118.06, 4.42 126.36, 0 136" stroke="#111827" stroke-width="2" fill="none"></path></g></g><mask></mask><g stroke-linecap="round"><g transform="translate(115 596) rotate(0 0 68)"><path d="M0 0 C-0.63 38.35, -0.82 77.26, 0 136 M0 0 C-0.74 33.5, 0.49 67.54, 0 136" stroke="#111827" stroke-width="2" fill="none"></path></g><g transform="translate(115 596) rotate(0 0 68)"><path d="M-10.22 107.79 C-7.25 115.12, -4.49 123.02, 0 136 M-10.22 107.79 C-8.05 114.6, -4.3 122, 0 136" stroke="#111827" stroke-width="2" fill="none"></path></g><g transform="translate(115 596) rotate(0 0 68)"><path d="M10.3 107.82 C7.37 115.15, 4.22 123.04, 0 136 M10.3 107.82 C7.4 114.74, 6.08 122.14, 0 136" stroke="#111827" stroke-width="2" fill="none"></path></g></g><mask></mask><g stroke-linecap="round"><g transform="translate(115 56) rotate(0 0 338)"><path d="M0 0 C-2.67 231.77, -2.78 462.85, 0 676 M0 0 C1.15 254.67, 1.45 508.96, 0 676" stroke="#111827" stroke-width="2" fill="none"></path></g><g transform="translate(115 56) rotate(0 0 338)"><path d="M-10.12 647.76 C-7.82 659.28, -4.65 668.98, 0 676 M-10.12 647.76 C-7.03 658.71, -2.46 668.69, 0 676" stroke="#111827" stroke-width="2" fill="none"></path></g><g transform="translate(115 56) rotate(0 0 338)"><path d="M10.4 647.86 C5.68 659.15, 1.84 668.81, 0 676 M10.4 647.86 C5.77 658.74, 2.6 668.69, 0 676" stroke="#111827" stroke-width="2" fill="none"></path></g></g><mask></mask><g stroke-linecap="round"><g transform="translate(115 776) rotate(0 0 68)"><path d="M0 0 C-3.16 41.2, -1.64 81.08, 0 136 M0 0 C-0.8 45.33, -0.71 90.78, 0 136" stroke="#111827" stroke-width="2" fill="none"></path></g><g transform="translate(115 776) rotate(0 0 68)"><path d="M-10.58 107.93 C-9.62 116.73, -4.92 124.18, 0 136 M-10.58 107.93 C-7.21 117.57, -3.6 127.24, 0 136" stroke="#111827" stroke-width="2" fill="none"></path></g><g transform="translate(115 776) rotate(0 0 68)"><path d="M9.94 107.69 C4.73 116.48, 3.27 124.01, 0 136 M9.94 107.69 C6.51 117.25, 3.31 126.99, 0 136" stroke="#111827" stroke-width="2" fill="none"></path></g></g><mask></mask><g stroke-linecap="round" transform="translate(50 10) rotate(0 65 24)"><path d="M3.19 2.78 C3.19 2.78, 3.19 2.78, 3.19 2.78 M3.19 2.78 C3.19 2.78, 3.19 2.78, 3.19 2.78 M0.05 18.59 C4.54 11.92, 9.82 10.1, 15.79 0.48 M0.05 18.59 C4.91 14.67, 7.13 10.27, 15.79 0.48 M0.18 30.63 C5.4 24.07, 13.64 12.42, 26.42 0.44 M0.18 30.63 C9.7 19.63, 19.79 8.54, 26.42 0.44 M1.63 41.16 C10.8 31.78, 21.08 18.76, 37.05 0.41 M1.63 41.16 C10.99 29.82, 20.96 18.17, 37.05 0.41 M7.01 47.17 C13.43 37.33, 23.71 28.15, 47.68 0.37 M7.01 47.17 C16.98 34.94, 27.35 24.56, 47.68 0.37 M17.64 47.13 C32.73 30.37, 45.47 12.22, 58.31 0.34 M17.64 47.13 C29.74 32.9, 40.45 20.87, 58.31 0.34 M27.61 47.85 C36.09 37.74, 46.45 25.02, 68.94 0.31 M27.61 47.85 C38.44 34.6, 49.3 22.67, 68.94 0.31 M38.24 47.82 C48.09 37.28, 55.01 28.69, 79.57 0.27 M38.24 47.82 C54.96 29.47, 71.41 10.34, 79.57 0.27 M48.87 47.78 C63.85 33.27, 76.33 16.17, 89.55 0.99 M48.87 47.78 C66.08 30.03, 81.62 11.18, 89.55 0.99 M59.5 47.75 C73.23 30, 90.08 11.45, 100.18 0.96 M59.5 47.75 C72.62 33.81, 84.05 19.72, 100.18 0.96 M70.13 47.71 C82.32 30.78, 97.22 16.32, 110.81 0.92 M70.13 47.71 C82.82 32.97, 96.97 17.06, 110.81 0.92 M80.76 47.68 C92.36 31.53, 105.05 17.74, 121.44 0.89 M80.76 47.68 C90.37 36.34, 98.94 26.42, 121.44 0.89 M91.39 47.65 C100.34 36.42, 108.09 26.6, 128.13 5.38 M91.39 47.65 C101.65 35.92, 114.65 22.88, 128.13 5.38 M102.02 47.61 C114.45 34.47, 125.21 23.78, 129.58 15.91 M102.02 47.61 C107.1 39.93, 113.94 33.9, 129.58 15.91 M112 48.33 C118.59 43.69, 123.15 39.75, 129.71 27.95 M112 48.33 C116.44 43.84, 121.96 38.15, 129.71 27.95 M123.28 47.54 C124.33 45.85, 125.74 44.32, 129.19 40.75 M123.28 47.54 C124.8 46.03, 126.06 44.38, 129.19 40.75" stroke="#3498db" stroke-width="1" fill="none"></path><path d="M12 0 C47.89 -1.47, 84.55 2.12, 118 0 M12 0 C43.27 -0.26, 74.4 -1.71, 118 0 M118 0 C125.15 -1.56, 130.9 5.72, 130 12 M118 0 C124.87 -0.9, 131.88 5.82, 130 12 M130 12 C130.17 21.3, 129.42 29.98, 130 36 M130 12 C130.09 18.34, 129 23.99, 130 36 M130 36 C128.62 43.62, 124.98 47.48, 118 48 M130 36 C131.39 42.22, 125.45 46.95, 118 48 M118 48 C76.45 50.12, 34.88 47.2, 12 48 M118 48 C88.12 48.25, 56.9 48.43, 12 48 M12 48 C5.27 48.51, 0.89 45.14, 0 36 M12 48 C5.32 47.8, 1.37 45.42, 0 36 M0 36 C-0.58 29.46, -1.29 19.69, 0 12 M0 36 C0.96 30.16, -0.66 23.12, 0 12 M0 12 C1.04 5.25, 3.41 -0.23, 12 0 M0 12 C-0.68 3.34, 6.22 -0.97, 12 0" stroke="#111827" stroke-width="2" fill="none"></path></g><g stroke-linecap="round" transform="translate(10 190) rotate(0 105 24)"><path d="M3.19 2.78 C3.19 2.78, 3.19 2.78, 3.19 2.78 M3.19 2.78 C3.19 2.78, 3.19 2.78, 3.19 2.78 M0.7 17.84 C6.91 13.92, 10.61 5.86, 15.79 0.48 M0.7 17.84 C4.38 13.29, 8.13 10.01, 15.79 0.48 M0.84 29.88 C9.49 18.03, 18.6 9.67, 26.42 0.44 M0.84 29.88 C11.57 18.05, 21.59 5.85, 26.42 0.44 M0.97 41.92 C14.25 28.49, 25.49 14.25, 37.05 0.41 M0.97 41.92 C12.47 29.47, 24.52 15.1, 37.05 0.41 M7.01 47.17 C16.23 35.09, 25.32 25.65, 47.68 0.37 M7.01 47.17 C15.53 37.29, 24.63 27.48, 47.68 0.37 M16.33 48.64 C34.49 28.54, 50.09 11.44, 58.31 0.34 M16.33 48.64 C29.95 32.76, 44.27 17.44, 58.31 0.34 M26.96 48.61 C36.51 37.03, 47.57 25.84, 68.94 0.31 M26.96 48.61 C34.7 37.28, 44.32 28.48, 68.94 0.31 M37.59 48.57 C52.44 30.2, 66.55 16.44, 79.57 0.27 M37.59 48.57 C49.7 32.8, 62.4 18.38, 79.57 0.27 M48.22 48.54 C58.76 35.75, 68.2 23.6, 90.2 0.24 M48.22 48.54 C60.46 34.6, 73.19 20.32, 90.2 0.24 M58.85 48.5 C70.75 34.45, 86.31 19.64, 100.83 0.2 M58.85 48.5 C68.75 36.8, 77.58 27.49, 100.83 0.2 M69.48 48.47 C81.29 36.88, 90.84 22.37, 111.46 0.17 M69.48 48.47 C85.3 29.17, 101.67 9.62, 111.46 0.17 M80.11 48.43 C89.89 39.21, 98.95 30.02, 122.09 0.13 M80.11 48.43 C88.2 38.31, 99.03 27.74, 122.09 0.13 M90.74 48.4 C106.08 30.06, 121.43 10.9, 132.72 0.1 M90.74 48.4 C100.55 35.92, 112.57 25.65, 132.72 0.1 M101.37 48.37 C110.24 36.32, 121.53 24.98, 143.35 0.06 M101.37 48.37 C114.71 32.35, 129.53 16.03, 143.35 0.06 M112 48.33 C123.34 35.11, 136.24 20.38, 153.98 0.03 M112 48.33 C121.1 35.01, 133.63 23.57, 153.98 0.03 M122.63 48.3 C134.95 34.25, 148.19 17.94, 164.61 0 M122.63 48.3 C136.15 32.27, 150.61 17.68, 164.61 0 M133.26 48.26 C144.21 32.29, 156.61 18.39, 175.24 -0.04 M133.26 48.26 C142.8 37.84, 150.51 28.39, 175.24 -0.04 M143.89 48.23 C156.24 34.76, 168.83 21.41, 185.87 -0.07 M143.89 48.23 C156.81 33.87, 169.06 17.65, 185.87 -0.07 M154.52 48.19 C166.73 31.43, 180.65 14.6, 195.85 0.65 M154.52 48.19 C170.49 30.95, 184.63 12.85, 195.85 0.65 M164.49 48.91 C178.3 33.32, 192.43 16.55, 205.17 2.12 M164.49 48.91 C176.39 35.31, 188.61 20.19, 205.17 2.12 M175.12 48.88 C190.07 32.97, 200.69 20.4, 209.89 8.88 M175.12 48.88 C189.49 33.25, 203.01 18.83, 209.89 8.88 M185.75 48.84 C196.12 37.7, 204.41 29.64, 210.02 20.92 M185.75 48.84 C193.01 42.21, 198.22 33.14, 210.02 20.92 M196.38 48.81 C197.91 47.14, 203.95 43.06, 210.16 32.96 M196.38 48.81 C201.68 42.74, 205.6 36.31, 210.16 32.96" stroke="#2ecc71" stroke-width="1" fill="none"></path><path d="M12 0 C52.17 -2.21, 96.11 -1.91, 198 0 M12 0 C62.03 0.83, 112.38 2.58, 198 0 M198 0 C204.22 -1.2, 210.69 2.82, 210 12 M198 0 C207.73 1.59, 208.84 3.4, 210 12 M210 12 C209.93 19.38, 209.6 27.99, 210 36 M210 12 C209.38 18.13, 210.78 25.32, 210 36 M210 36 C210.31 42.37, 204.01 47.92, 198 48 M210 36 C209.47 43.66, 205.14 48.47, 198 48 M198 48 C146.4 44.99, 94.05 47.22, 12 48 M198 48 C130.44 50.57, 62.5 50.48, 12 48 M12 48 C2.13 46.73, -1.76 42.6, 0 36 M12 48 C3.05 49.69, -0.95 46.1, 0 36 M0 36 C-1.48 30.4, -1.35 20.31, 0 12 M0 36 C-0.29 31.52, -0.2 25.23, 0 12 M0 12 C-1.25 5.54, 4.11 1.06, 12 0 M0 12 C1.64 4.89, 4.79 1.27, 12 0" stroke="#111827" stroke-width="2" fill="none"></path></g><g stroke-linecap="round" transform="translate(55 370) rotate(0 60 24)"><path d="M3.19 2.78 C3.19 2.78, 3.19 2.78, 3.19 2.78 M3.19 2.78 C3.19 2.78, 3.19 2.78, 3.19 2.78 M4.64 13.31 C6.47 11.89, 8.89 6.88, 14.48 1.99 M4.64 13.31 C7.5 10.52, 8.74 9.29, 14.48 1.99 M4.77 25.35 C11.88 16.29, 17.85 9.11, 25.11 1.95 M4.77 25.35 C12.82 15.87, 21.27 7, 25.11 1.95 M2.28 40.41 C9.4 29.9, 17.73 19.09, 35.74 1.92 M2.28 40.41 C11.96 30.37, 19.56 19.47, 35.74 1.92 M7.01 47.17 C20.7 34.49, 31.56 16.7, 45.71 2.64 M7.01 47.17 C18.56 34.26, 31.12 20.85, 45.71 2.64 M17.64 47.13 C28.11 37.96, 34.21 26.58, 56.34 2.6 M17.64 47.13 C32.66 30.02, 46.29 13.01, 56.34 2.6 M27.61 47.85 C35.74 36.99, 45.52 26.9, 66.97 2.57 M27.61 47.85 C37.72 36.79, 46.33 26.34, 66.97 2.57 M38.24 47.82 C48.64 34.63, 59.35 21.81, 77.6 2.54 M38.24 47.82 C52.98 32.23, 67.13 15.33, 77.6 2.54 M48.87 47.78 C59.27 35.38, 70.42 23.29, 88.23 2.5 M48.87 47.78 C61.67 31.6, 76.22 16.31, 88.23 2.5 M59.5 47.75 C70.89 35.09, 79.21 25.17, 98.86 2.47 M59.5 47.75 C68.96 36.04, 77.36 26.69, 98.86 2.47 M70.13 47.71 C85.48 29, 98.57 14.11, 109.5 2.43 M70.13 47.71 C86.16 30.57, 101.77 11.36, 109.5 2.43 M80.76 47.68 C90.27 36.11, 102.4 22.38, 118.16 4.66 M80.76 47.68 C90.19 36.91, 100.42 25.71, 118.16 4.66 M91.39 47.65 C100.96 34.14, 114.5 22.4, 122.88 11.42 M91.39 47.65 C101.53 36.77, 111.57 25.83, 122.88 11.42 M101.37 48.37 C104.73 42.86, 110.89 38.58, 122.36 24.21 M101.37 48.37 C107.51 41.16, 115.12 32.83, 122.36 24.21 M110.68 49.84 C113.62 43.85, 118.54 38.48, 122.49 36.26 M110.68 49.84 C114.34 45.92, 115.56 43.75, 122.49 36.26" stroke="#e74c3c" stroke-width="1" fill="none"></path><path d="M12 0 C35.04 -2.24, 59.84 0.98, 108 0 M12 0 C49.74 0.13, 87.18 -0.69, 108 0 M108 0 C114.33 -1.44, 121.43 5.96, 120 12 M108 0 C115.52 1.96, 122.05 6.08, 120 12 M120 12 C119.98 19.71, 121.69 28.39, 120 36 M120 12 C120.53 21.14, 120.46 30.17, 120 36 M120 36 C121.06 43.04, 114.83 48.91, 108 48 M120 36 C122.15 43.74, 114.36 45.97, 108 48 M108 48 C76.03 48.3, 47.44 45.31, 12 48 M108 48 C80.12 47.76, 51.72 48.52, 12 48 M12 48 C5.97 46.89, 1 45.54, 0 36 M12 48 C2.55 47.19, 0.17 43.01, 0 36 M0 36 C-1.76 28.5, -0.53 23.59, 0 12 M0 36 C0.94 27.37, -0.11 18.49, 0 12 M0 12 C-1.8 2.13, 3.75 1.46, 12 0 M0 12 C-0.33 5.59, 2.63 1.24, 12 0" stroke="#111827" stroke-width="2" fill="none"></path></g><g stroke-linecap="round" transform="translate(10 550) rotate(0 105 24)"><path d="M3.19 2.78 C3.19 2.78, 3.19 2.78, 3.19 2.78 M3.19 2.78 C3.19 2.78, 3.19 2.78, 3.19 2.78 M0.7 17.84 C2.94 13.61, 7.32 9.5, 15.79 0.48 M0.7 17.84 C7.07 10.47, 11.8 4.86, 15.79 0.48 M0.84 29.88 C8.65 20.54, 15.11 11.87, 26.42 0.44 M0.84 29.88 C9.97 21.47, 16.8 11.25, 26.42 0.44 M0.97 41.92 C9.42 30, 20.26 19.3, 37.05 0.41 M0.97 41.92 C14.65 26.74, 26.15 13.25, 37.05 0.41 M7.01 47.17 C17.06 39.1, 26.43 25.4, 47.68 0.37 M7.01 47.17 C22.31 29.73, 39.46 10.51, 47.68 0.37 M16.33 48.64 C30.42 31.03, 42.01 18.49, 58.31 0.34 M16.33 48.64 C25.52 36.55, 36.51 26.41, 58.31 0.34 M26.96 48.61 C41.94 31.36, 54.12 16.91, 68.94 0.31 M26.96 48.61 C42.8 29.02, 61.27 9.16, 68.94 0.31 M37.59 48.57 C55.14 31.82, 70.11 13.81, 79.57 0.27 M37.59 48.57 C48.24 36.03, 57.71 26.17, 79.57 0.27 M48.22 48.54 C56.92 39.29, 67.41 26.72, 90.2 0.24 M48.22 48.54 C62.43 32.41, 74.78 16.29, 90.2 0.24 M58.85 48.5 C72.66 32.96, 82.27 21.88, 100.83 0.2 M58.85 48.5 C69.75 36.09, 79.72 24.64, 100.83 0.2 M69.48 48.47 C83.15 32.3, 95.08 18.5, 111.46 0.17 M69.48 48.47 C84.89 31.62, 99.9 11.87, 111.46 0.17 M80.11 48.43 C97.67 29, 112.85 12.15, 122.09 0.13 M80.11 48.43 C96.5 29.39, 113.66 11.04, 122.09 0.13 M90.74 48.4 C102.88 30.62, 119.65 17.75, 132.72 0.1 M90.74 48.4 C102.26 34.93, 114.99 19.31, 132.72 0.1 M101.37 48.37 C116.19 31.2, 130.58 15, 143.35 0.06 M101.37 48.37 C111.72 37.21, 119.96 27.91, 143.35 0.06 M112 48.33 C123.95 34.07, 131.54 22.45, 153.98 0.03 M112 48.33 C125.57 32.87, 137.67 19.1, 153.98 0.03 M122.63 48.3 C136.78 29.64, 155.54 12.48, 164.61 0 M122.63 48.3 C138 31.7, 151.77 12.96, 164.61 0 M133.26 48.26 C142.76 37.5, 152.27 25.66, 175.24 -0.04 M133.26 48.26 C148.01 32.26, 162.66 14.71, 175.24 -0.04 M143.89 48.23 C151.56 39.09, 162.79 25.96, 185.87 -0.07 M143.89 48.23 C155.46 34.44, 167.05 21.01, 185.87 -0.07 M154.52 48.19 C165.01 32.39, 178.34 19.86, 195.85 0.65 M154.52 48.19 C164.29 35.17, 175.18 24.84, 195.85 0.65 M164.49 48.91 C175.7 36.65, 187.3 26.63, 205.17 2.12 M164.49 48.91 C177.2 34.41, 189.38 20.67, 205.17 2.12 M175.12 48.88 C186.37 34.78, 200.02 19.69, 209.89 8.88 M175.12 48.88 C187.4 35.42, 197.5 21.95, 209.89 8.88 M185.75 48.84 C192.81 37.82, 202.69 29.99, 210.02 20.92 M185.75 48.84 C194.52 39.56, 204.34 28.4, 210.02 20.92 M196.38 48.81 C201.11 44.7, 205.39 40.84, 210.16 32.96 M196.38 48.81 C198.56 44.39, 202.64 41.96, 210.16 32.96" stroke="#f39c12" stroke-width="1" fill="none"></path><path d="M12 0 C64.57 1.42, 120.53 0.24, 198 0 M12 0 C78.95 0.31, 145 0.38, 198 0 M198 0 C206.84 1.36, 208.33 2.85, 210 12 M198 0 C204.21 -0.8, 207.73 3.31, 210 12 M210 12 C209.15 20.67, 211.23 26.2, 210 36 M210 12 C210.56 17.79, 209.35 25.05, 210 36 M210 36 C210.66 42.13, 207.18 47.17, 198 48 M210 36 C208.67 41.84, 206.57 48.65, 198 48 M198 48 C146.21 46.93, 99.1 45.38, 12 48 M198 48 C159.18 47.17, 120.42 48.66, 12 48 M12 48 C2.53 47.66, 0.23 45.15, 0 36 M12 48 C3.06 46.68, 2.04 42.57, 0 36 M0 36 C0.19 30.98, -0.25 21.6, 0 12 M0 36 C0.59 27.88, 0.5 18.89, 0 12 M0 12 C-1.38 5.45, 4.91 0.63, 12 0 M0 12 C1.54 5.81, 5.59 0.05, 12 0" stroke="#111827" stroke-width="2" fill="none"></path></g><g stroke-linecap="round" transform="translate(30 730) rotate(0 85 24)"><path d="M3.19 2.78 C3.19 2.78, 3.19 2.78, 3.19 2.78 M3.19 2.78 C3.19 2.78, 3.19 2.78, 3.19 2.78 M0.05 18.59 C3.06 12.3, 9.21 10.41, 15.79 0.48 M0.05 18.59 C5.2 13.1, 10.05 8.17, 15.79 0.48 M0.18 30.63 C8.98 23.16, 16.66 13.46, 26.42 0.44 M0.18 30.63 C8.56 22.24, 15.72 14.2, 26.42 0.44 M1.63 41.16 C15.81 24.72, 26.66 10.23, 37.05 0.41 M1.63 41.16 C12.56 26.77, 24.26 14.94, 37.05 0.41 M7.01 47.17 C21.58 29.35, 33.69 15.75, 47.68 0.37 M7.01 47.17 C23.17 30.48, 37.96 11.83, 47.68 0.37 M17.64 47.13 C28.63 36.92, 37.23 24.82, 58.31 0.34 M17.64 47.13 C26.55 37.07, 36.21 25.08, 58.31 0.34 M28.27 47.1 C42.01 32.55, 56.3 16.38, 68.94 0.31 M28.27 47.1 C41.7 31.55, 53.8 16.66, 68.94 0.31 M38.24 47.82 C48.91 37.03, 60.47 23.13, 79.57 0.27 M38.24 47.82 C51.47 34.11, 62.73 20.31, 79.57 0.27 M48.87 47.78 C65.21 30.12, 80.45 9.63, 90.2 0.24 M48.87 47.78 C60.17 35.67, 71.85 21.13, 90.2 0.24 M59.5 47.75 C73.5 35.01, 83.42 20.97, 100.83 0.2 M59.5 47.75 C73.68 31.86, 88.23 15.58, 100.83 0.2 M70.13 47.71 C79.25 35.21, 87.83 24.19, 110.81 0.92 M70.13 47.71 C79.33 37.95, 87.65 27.97, 110.81 0.92 M80.76 47.68 C96.53 31.67, 106.59 16.5, 121.44 0.89 M80.76 47.68 C96.94 30.72, 112.29 11.84, 121.44 0.89 M91.39 47.65 C99.42 37.22, 111.15 25.35, 132.07 0.85 M91.39 47.65 C106.19 30.66, 119.38 14.97, 132.07 0.85 M102.02 47.61 C110.02 38.83, 118.69 29.08, 142.7 0.82 M102.02 47.61 C116.71 30.83, 129.83 16.28, 142.7 0.82 M112.65 47.58 C126.5 33.08, 137.18 15.95, 153.33 0.78 M112.65 47.58 C121.24 36.56, 130.59 27.23, 153.33 0.78 M123.28 47.54 C138.29 30.96, 150.29 16.25, 163.96 0.75 M123.28 47.54 C135.71 32.1, 149.58 18.51, 163.96 0.75 M133.26 48.26 C141.55 37.12, 149.7 28.9, 168.68 7.51 M133.26 48.26 C144.69 34.92, 156.82 19.86, 168.68 7.51 M143.89 48.23 C151.59 37.72, 158.96 30.62, 169.47 18.79 M143.89 48.23 C153.11 36.93, 162.59 27.84, 169.47 18.79 M154.52 48.19 C160.02 44.34, 162.21 39.26, 169.61 30.83 M154.52 48.19 C159.95 42.34, 164.2 37.86, 169.61 30.83" stroke="#9b59b6" stroke-width="1" fill="none"></path><path d="M12 0 C56.19 -0.92, 101.98 1.87, 158 0 M12 0 C67.82 -0.88, 125.41 0.11, 158 0 M158 0 C166.1 0.11, 171.31 3.1, 170 12 M158 0 C165.09 0.75, 171.75 3.15, 170 12 M170 12 C170.76 19.1, 170.06 20.97, 170 36 M170 12 C169.77 21.97, 170.17 30.62, 170 36 M170 36 C170.75 43.54, 165.8 47.38, 158 48 M170 36 C168.7 42.39, 167.17 47.46, 158 48 M158 48 C112.25 48.25, 61.03 49.34, 12 48 M158 48 C125.75 48.98, 92.1 47.44, 12 48 M12 48 C4.43 47.69, 1.58 43.09, 0 36 M12 48 C5.55 48.54, 1.2 45.3, 0 36 M0 36 C-1.78 27.8, -1.54 19.26, 0 12 M0 36 C-0.34 27.24, -0.22 16.78, 0 12 M0 12 C0.97 3.83, 2.71 0.93, 12 0 M0 12 C0.7 2.59, 5.22 0.84, 12 0" stroke="#111827" stroke-width="2" fill="none"></path></g><g stroke-linecap="round" transform="translate(10 910) rotate(0 105 24)"><path d="M3.19 2.78 C3.19 2.78, 3.19 2.78, 3.19 2.78 M3.19 2.78 C3.19 2.78, 3.19 2.78, 3.19 2.78 M3.33 14.82 C8.12 12.18, 10.32 5.36, 14.48 1.99 M3.33 14.82 C5.32 12.06, 7.81 9.39, 14.48 1.99 M3.46 26.86 C10.83 19.52, 16.12 8.82, 25.11 1.95 M3.46 26.86 C11.39 18.68, 19.33 9.18, 25.11 1.95 M0.97 41.92 C10.68 32.4, 16.03 24.3, 35.74 1.92 M0.97 41.92 C12.97 26.34, 27.13 13.32, 35.74 1.92 M6.35 47.92 C21.8 31.63, 37.06 12.58, 46.37 1.88 M6.35 47.92 C14.26 38.13, 22.7 27.5, 46.37 1.88 M13.7 51.66 C22.24 40.55, 34.74 29.56, 57 1.85 M13.7 51.66 C23.25 39.55, 34.81 28.71, 57 1.85 M24.33 51.63 C41.07 35.61, 52.87 20.48, 67.63 1.81 M24.33 51.63 C34.93 39.2, 44.86 26.56, 67.63 1.81 M34.96 51.59 C49.77 37.28, 62.14 19.82, 78.26 1.78 M34.96 51.59 C46.81 37.38, 59.67 22.3, 78.26 1.78 M45.59 51.56 C63.61 33.71, 77.64 13.63, 88.23 2.5 M45.59 51.56 C57.89 37.77, 68.95 23.97, 88.23 2.5 M56.22 51.52 C63.7 38.58, 75.86 29.4, 98.86 2.47 M56.22 51.52 C69.23 36.86, 82.27 21.36, 98.86 2.47 M66.85 51.49 C82.3 31.87, 98.7 12.55, 109.5 2.43 M66.85 51.49 C82.47 32.73, 97.45 14.9, 109.5 2.43 M77.48 51.45 C92.57 32.93, 110.53 13.61, 120.13 2.4 M77.48 51.45 C88.7 39.03, 98.1 27.63, 120.13 2.4 M88.11 51.42 C98.46 40.6, 108.37 29.15, 130.76 2.36 M88.11 51.42 C98.84 40.59, 107.52 30.7, 130.76 2.36 M98.09 52.14 C108.76 41.49, 119.29 28.6, 141.39 2.33 M98.09 52.14 C112.73 34.19, 128.27 16.23, 141.39 2.33 M108.72 52.1 C118.88 41.63, 127.72 28.94, 152.02 2.29 M108.72 52.1 C118.42 41.22, 127.59 29.86, 152.02 2.29 M119.35 52.07 C136.18 35.88, 151.66 16.7, 162.65 2.26 M119.35 52.07 C135.61 35.05, 150.68 16.35, 162.65 2.26 M129.98 52.04 C141.34 37.69, 153.17 25.07, 173.28 2.22 M129.98 52.04 C145.95 33.53, 164.17 13.45, 173.28 2.22 M140.61 52 C150.94 39.63, 164.77 23.53, 183.91 2.19 M140.61 52 C156.31 34.87, 169.83 16.76, 183.91 2.19 M151.24 51.97 C165.32 39.68, 177.67 22.93, 194.54 2.16 M151.24 51.97 C167.25 34.28, 182.03 15.42, 194.54 2.16 M161.87 51.93 C171.77 41.68, 182.59 27.03, 205.17 2.12 M161.87 51.93 C177.57 35.19, 191.33 18.18, 205.17 2.12 M172.5 51.9 C184 39.43, 192.25 29.1, 210.55 8.12 M172.5 51.9 C183.21 40.09, 194.8 27.13, 210.55 8.12 M183.13 51.86 C189.96 43.87, 198.3 31.67, 210.68 20.17 M183.13 51.86 C194.76 39.69, 205.41 26.09, 210.68 20.17 M193.76 51.83 C198.17 46.6, 204.3 42.44, 210.81 32.21 M193.76 51.83 C200.27 46.19, 205.41 38.83, 210.81 32.21" stroke="#1abc9c" stroke-width="1" fill="none"></path><path d="M12 0 C84.4 0.59, 157.2 -0.08, 198 0 M12 0 C58.23 -0.31, 105.93 1.07, 198 0 M198 0 C204.25 0.23, 209.4 5.79, 210 12 M198 0 C205.19 -1.62, 211.9 4.92, 210 12 M210 12 C210.16 18.68, 211.34 25.17, 210 36 M210 12 C209 20.16, 210.58 27.56, 210 36 M210 36 C211.97 42.75, 205.63 48.25, 198 48 M210 36 C208.11 46.27, 205.75 47, 198 48 M198 48 C130.06 48.23, 62.21 47.02, 12 48 M198 48 C125.43 47.7, 51.59 47.13, 12 48 M12 48 C2.28 49.21, -1.53 45.73, 0 36 M12 48 C5.56 49.3, 0.59 45.93, 0 36 M0 36 C1.15 28.06, 0.66 23.84, 0 12 M0 36 C0.84 29.76, -0.58 24.51, 0 12 M0 12 C1.61 4.21, 4.79 -0.6, 12 0 M0 12 C1.85 3.76, 3.5 0.85, 12 0" stroke="#111827" stroke-width="2" fill="none"></path></g><g transform="translate(70 22) rotate(0 45 12)"><text x="45" y="0" font-family="Virgil, Segoe UI Emoji" font-size="16px" fill="#111827" text-anchor="middle" style="white-space: pre;" direction="ltr" dominant-baseline="text-before-edge">User Query</text></g><g transform="translate(34 202) rotate(0 81 12)"><text x="81" y="0" font-family="Virgil, Segoe UI Emoji" font-size="16px" fill="#111827" text-anchor="middle" style="white-space: pre;" direction="ltr" dominant-baseline="text-before-edge">Document Retrieval</text></g><g transform="translate(74.5 382) rotate(0 40.5 12)"><text x="40.5" y="0" font-family="Virgil, Segoe UI Emoji" font-size="16px" fill="#111827" text-anchor="middle" style="white-space: pre;" direction="ltr" dominant-baseline="text-before-edge">Reranking</text></g><g transform="translate(34 562) rotate(0 81 12)"><text x="81" y="0" font-family="Virgil, Segoe UI Emoji" font-size="16px" fill="#111827" text-anchor="middle" style="white-space: pre;" direction="ltr" dominant-baseline="text-before-edge">Query Augmentation</text></g><g transform="translate(52 742) rotate(0 63 12)"><text x="63" y="0" font-family="Virgil, Segoe UI Emoji" font-size="16px" fill="#111827" text-anchor="middle" style="white-space: pre;" direction="ltr" dominant-baseline="text-before-edge">Language Model</text></g><g transform="translate(34 922) rotate(0 81 12)"><text x="81" y="0" font-family="Virgil, Segoe UI Emoji" font-size="16px" fill="#111827" text-anchor="middle" style="white-space: pre;" direction="ltr" dominant-baseline="text-before-edge">Generated Response</text></g><g transform="translate(40.5 114) rotate(0 62.5 10)"><text x="62.5" y="0" font-family="Virgil, Segoe UI Emoji" font-size="14px" fill="#111827" text-anchor="middle" style="white-space: pre;" direction="ltr" dominant-baseline="text-before-edge">Initial Query</text></g><g transform="translate(36 294) rotate(0 67 10)"><text x="67" y="0" font-family="Virgil, Segoe UI Emoji" font-size="14px" fill="#111827" text-anchor="middle" style="white-space: pre;" direction="ltr" dominant-baseline="text-before-edge">Retrieved Docs</text></g><g transform="translate(40.5 474) rotate(0 62.5 10)"><text x="62.5" y="0" font-family="Virgil, Segoe UI Emoji" font-size="14px" fill="#111827" text-anchor="middle" style="white-space: pre;" direction="ltr" dominant-baseline="text-before-edge">Top Documents</text></g><g transform="translate(22.5 654) rotate(0 80.5 10)"><text x="80.5" y="0" font-family="Virgil, Segoe UI Emoji" font-size="14px" fill="#111827" text-anchor="middle" style="white-space: pre;" direction="ltr" dominant-baseline="text-before-edge">Augmented Context</text></g><g transform="translate(36 384) rotate(0 67 10)"><text x="67" y="0" font-family="Virgil, Segoe UI Emoji" font-size="14px" fill="#111827" text-anchor="middle" style="white-space: pre;" direction="ltr" dominant-baseline="text-before-edge">Original Query</text></g><g transform="translate(45 834) rotate(0 58 10)"><text x="58" y="0" font-family="Virgil, Segoe UI Emoji" font-size="14px" fill="#111827" text-anchor="middle" style="white-space: pre;" direction="ltr" dominant-baseline="text-before-edge">Final Answer</text></g></svg>