<svg version="1.1" xmlns="http://www.w3.org/2000/svg" viewBox="0 0 444 186" width="444" height="186">
  <!-- svg-source:excalidraw -->
  
  <defs>
    <style class="style-fonts">
      @font-face {
        font-family: "Virgil";
        src: url("https://unpkg.com/@excalidraw/excalidraw@undefined/dist/excalidraw-assets/Virgil.woff2");
      }
      @font-face {
        font-family: "Cascadia";
        src: url("https://unpkg.com/@excalidraw/excalidraw@undefined/dist/excalidraw-assets/Cascadia.woff2");
      }
      @font-face {
        font-family: "Assistant";
        src: url("https://unpkg.com/@excalidraw/excalidraw@undefined/dist/excalidraw-assets/Assistant-Regular.woff2");
      }
    </style>
    
  </defs>
  <rect x="0" y="0" width="444" height="186" fill="#ffffff"></rect><g stroke-linecap="round" transform="translate(10 10) rotate(0 40 22)"><path d="M2.93 2.55 C2.93 2.55, 2.93 2.55, 2.93 2.55 M2.93 2.55 C2.93 2.55, 2.93 2.55, 2.93 2.55 M0.44 17.6 C4.24 11.83, 9.61 10.08, 15.53 0.25 M0.44 17.6 C2.82 14.73, 6.23 11.32, 15.53 0.25 M1.23 28.89 C9.24 20.46, 14.69 10.78, 26.16 0.21 M1.23 28.89 C9.05 20.22, 16.51 12.5, 26.16 0.21 M2.67 39.42 C13.85 25.79, 22.5 13.73, 36.13 0.93 M2.67 39.42 C15.92 24.19, 28.73 10.67, 36.13 0.93 M9.37 43.92 C24.49 30.37, 35.39 11.48, 46.76 0.9 M9.37 43.92 C19.03 32.82, 29.8 22.24, 46.76 0.9 M20 43.88 C29.95 31.73, 38.19 19.57, 57.39 0.86 M20 43.88 C32.87 29.26, 45.51 13.57, 57.39 0.86 M30.63 43.85 C39.16 34.44, 48.33 24.8, 68.02 0.83 M30.63 43.85 C39.5 33.72, 49.14 22.95, 68.02 0.83 M40.6 44.57 C48.84 37.67, 54.01 26.44, 76.68 3.06 M40.6 44.57 C49.59 35.98, 56.1 25.43, 76.68 3.06 M51.23 44.53 C58.37 37.35, 63.84 29.06, 80.1 11.33 M51.23 44.53 C61.72 33.12, 71.45 20.01, 80.1 11.33 M61.86 44.5 C65.09 37.25, 72.31 32.67, 80.23 23.37 M61.86 44.5 C67.07 39.49, 71.32 32.22, 80.23 23.37 M73.15 43.71 C77 39.56, 77.8 37.64, 80.36 35.41 M73.15 43.71 C74.91 41.59, 78.17 38.64, 80.36 35.41" stroke="#4F46E5" stroke-width="1" fill="none"></path><path d="M11 0 C30.17 -0.08, 46.29 2.31, 69 0 M11 0 C28.08 1.1, 43.51 0.29, 69 0 M69 0 C76.66 -0.7, 80.88 5.23, 80 11 M69 0 C77.58 -0.31, 79.51 4.22, 80 11 M80 11 C81 18.46, 78.02 24.16, 80 33 M80 11 C80.53 20.32, 79.89 27.78, 80 33 M80 33 C78.06 41.38, 77.37 42.55, 69 44 M80 33 C78.06 41.8, 74.7 44.13, 69 44 M69 44 C56.53 43.23, 40.43 42.05, 11 44 M69 44 C56.51 43.71, 43.24 42.98, 11 44 M11 44 C2.16 45.98, -1.86 39.75, 0 33 M11 44 C3.12 41.75, 1.19 40.62, 0 33 M0 33 C-1.15 29.39, 1.2 21.46, 0 11 M0 33 C0.56 26.49, -0.43 18.6, 0 11 M0 11 C0.73 5.51, 4.14 1.21, 11 0 M0 11 C0.82 2.3, 2.79 2.16, 11 0" stroke="#111827" stroke-width="2" fill="none"></path></g><g transform="translate(50 32) rotate(0 32 12)"><text x="32" y="0" font-family="Virgil, Segoe UI Emoji" font-size="16px" fill="#111827" text-anchor="middle" style="white-space: pre;" direction="ltr" dominant-baseline="text-before-edge">A</text></g><g stroke-linecap="round" transform="translate(170 130) rotate(0 40 22)"><path d="M2.93 2.55 C2.93 2.55, 2.93 2.55, 2.93 2.55 M2.93 2.55 C2.93 2.55, 2.93 2.55, 2.93 2.55 M0.44 17.6 C2.78 12.88, 7.98 10.08, 15.53 0.25 M0.44 17.6 C4.83 13.6, 7.56 9.11, 15.53 0.25 M1.23 28.89 C8.2 22.7, 13.55 14.29, 26.16 0.21 M1.23 28.89 C11.79 18.63, 20.71 5.73, 26.16 0.21 M2.67 39.42 C9.6 30.33, 19.02 20.76, 36.13 0.93 M2.67 39.42 C15.01 25.13, 27.5 10.52, 36.13 0.93 M9.37 43.92 C16.46 32.06, 28.69 24.71, 46.76 0.9 M9.37 43.92 C21.34 29.46, 34.23 16.74, 46.76 0.9 M20 43.88 C29.11 31.95, 42 15.6, 57.39 0.86 M20 43.88 C31.02 32.28, 40.08 20.61, 57.39 0.86 M30.63 43.85 C43.02 32.81, 51.36 19.84, 68.02 0.83 M30.63 43.85 C41.47 31.01, 51.8 19.19, 68.02 0.83 M40.6 44.57 C52.85 28.78, 65.29 15.7, 76.68 3.06 M40.6 44.57 C50.07 34.2, 60.5 21.48, 76.68 3.06 M51.23 44.53 C60.74 31.74, 72.72 19.07, 80.1 11.33 M51.23 44.53 C61.72 32.5, 71.36 19.88, 80.1 11.33 M61.86 44.5 C66.34 40.13, 72.64 33.91, 80.23 23.37 M61.86 44.5 C68.49 37.49, 74.2 29.88, 80.23 23.37 M73.15 43.71 C74.09 42.41, 75.77 40.95, 80.36 35.41 M73.15 43.71 C74.68 42.03, 76.19 40.3, 80.36 35.41" stroke="#4F46E5" stroke-width="1" fill="none"></path><path d="M11 0 C33.89 0.81, 56.32 0.41, 69 0 M11 0 C26.08 -0.13, 41.75 0.49, 69 0 M69 0 C76.01 1.94, 81.5 4.51, 80 11 M69 0 C74.34 2.02, 80.03 3.7, 80 11 M80 11 C79.26 18.38, 81.3 29.9, 80 33 M80 11 C80.38 19.21, 79.3 27.47, 80 33 M80 33 C79.48 40.48, 76.37 43.85, 69 44 M80 33 C80.41 41.58, 74.55 41.95, 69 44 M69 44 C52.65 45.67, 41.12 44.64, 11 44 M69 44 C54.34 43.88, 40.59 44.97, 11 44 M11 44 C1.96 44.98, 1.79 41.68, 0 33 M11 44 C5.14 42.87, 2.19 39.41, 0 33 M0 33 C1.57 29.15, 0.77 23.2, 0 11 M0 33 C0.7 27.62, 0.06 21.71, 0 11 M0 11 C-0.61 1.74, 4.42 1.46, 11 0 M0 11 C-1.38 1.52, 2.51 2.2, 11 0" stroke="#111827" stroke-width="2" fill="none"></path></g><g transform="translate(210 152) rotate(0 32 12)"><text x="32" y="0" font-family="Virgil, Segoe UI Emoji" font-size="16px" fill="#111827" text-anchor="middle" style="white-space: pre;" direction="ltr" dominant-baseline="text-before-edge">B</text></g><g stroke-linecap="round" transform="translate(330 130) rotate(0 40 22)"><path d="M2.93 2.55 C2.93 2.55, 2.93 2.55, 2.93 2.55 M2.93 2.55 C2.93 2.55, 2.93 2.55, 2.93 2.55 M0.44 17.6 C4.83 11.65, 10.29 9.73, 15.53 0.25 M0.44 17.6 C4.8 11.2, 10.59 6.75, 15.53 0.25 M1.23 28.89 C6.5 19.53, 15.01 15.55, 26.16 0.21 M1.23 28.89 C9.82 18.9, 18.24 7.19, 26.16 0.21 M2.67 39.42 C11.54 28.07, 22.06 15.65, 36.13 0.93 M2.67 39.42 C10.79 30.02, 18.18 21.34, 36.13 0.93 M9.37 43.92 C20.07 30.3, 33.54 16.81, 46.76 0.9 M9.37 43.92 C19.57 31.58, 29.23 20.03, 46.76 0.9 M20 43.88 C29.77 31.69, 37.59 22.6, 57.39 0.86 M20 43.88 C31.55 31.15, 42.87 17.13, 57.39 0.86 M30.63 43.85 C42.87 31.45, 54.77 13.9, 68.02 0.83 M30.63 43.85 C43.38 29.43, 56.03 13.89, 68.02 0.83 M40.6 44.57 C51.61 32.56, 60.55 22.3, 76.68 3.06 M40.6 44.57 C50.33 32.56, 61.81 19.86, 76.68 3.06 M51.23 44.53 C60.13 34.38, 70.64 21.59, 80.1 11.33 M51.23 44.53 C59.48 35.41, 67.1 25.74, 80.1 11.33 M61.86 44.5 C69.78 36.34, 72.86 30.25, 80.23 23.37 M61.86 44.5 C66.2 38.85, 71.86 33.38, 80.23 23.37 M73.15 43.71 C76.46 40.95, 78.06 37.45, 80.36 35.41 M73.15 43.71 C75.4 42.13, 76.88 39.73, 80.36 35.41" stroke="#4F46E5" stroke-width="1" fill="none"></path><path d="M11 0 C31.97 0.49, 51.59 1.08, 69 0 M11 0 C27.01 -0.47, 42.11 -0.94, 69 0 M69 0 C77.21 0.1, 78.5 2.4, 80 11 M69 0 C76.93 1.82, 80.96 4.35, 80 11 M80 11 C80.47 16.19, 78.84 20.13, 80 33 M80 11 C79.45 19.64, 78.93 28.1, 80 33 M80 33 C80.35 39.35, 76.67 43.29, 69 44 M80 33 C79.94 41.62, 75.76 45.94, 69 44 M69 44 C51.52 42.47, 39.06 45.21, 11 44 M69 44 C53.87 44.09, 39.11 43.92, 11 44 M11 44 C3.61 42.59, -0.1 41.62, 0 33 M11 44 C1.86 44.44, -0.77 38.3, 0 33 M0 33 C1.3 28.04, 1.31 19.92, 0 11 M0 33 C-0.9 28.32, 0.93 22.8, 0 11 M0 11 C1.13 3.42, 3.65 0.75, 11 0 M0 11 C2.06 3.41, 4.64 -1.89, 11 0" stroke="#111827" stroke-width="2" fill="none"></path></g><g transform="translate(370 152) rotate(0 32 12)"><text x="32" y="0" font-family="Virgil, Segoe UI Emoji" font-size="16px" fill="#111827" text-anchor="middle" style="white-space: pre;" direction="ltr" dominant-baseline="text-before-edge">C</text></g><g stroke-linecap="round"><g transform="translate(50 32) rotate(0 80 60)"><path d="M0 0 C35.25 28.08, 73.55 57.48, 160 120 M0 0 C49.6 37.38, 101.81 76.98, 160 120" stroke="#111827" stroke-width="2" fill="none"></path></g><g transform="translate(50 32) rotate(0 80 60)"><path d="M131.26 111.41 C136.12 112.5, 143.47 115.72, 160 120 M131.26 111.41 C139.64 113.35, 150.39 117.79, 160 120" stroke="#111827" stroke-width="2" fill="none"></path></g><g transform="translate(50 32) rotate(0 80 60)"><path d="M143.51 94.94 C145.34 99.87, 149.8 106.97, 160 120 M143.51 94.94 C147.92 102.1, 154.79 111.77, 160 120" stroke="#111827" stroke-width="2" fill="none"></path></g></g><mask></mask><g stroke-linecap="round"><g transform="translate(210 152) rotate(0 80 0)"><path d="M0 0 C49.97 -0.7, 96.76 -0.65, 160 0 M0 0 C45.91 -0.91, 90.8 0.64, 160 0" stroke="#111827" stroke-width="2" fill="none"></path></g><g transform="translate(210 152) rotate(0 80 0)"><path d="M131.83 10.32 C142.27 6.91, 149.47 3.87, 160 0 M131.83 10.32 C140.08 6.75, 147.21 5.34, 160 0" stroke="#111827" stroke-width="2" fill="none"></path></g><g transform="translate(210 152) rotate(0 80 0)"><path d="M131.79 -10.21 C142.12 -7.45, 149.34 -4.33, 160 0 M131.79 -10.21 C139.86 -7.89, 147 -3.42, 160 0" stroke="#111827" stroke-width="2" fill="none"></path></g></g><mask></mask></svg>